<svg xmlns="http://www.w3.org/2000/svg" viewBox="0 0 21 21"><path style="text-decoration-color:#000000;isolation:auto;mix-blend-mode:normal;solid-color:#000000;block-progression:tb;text-decoration-line:none;text-decoration-style:solid;white-space:normal;text-indent:0;text-transform:none" d="M0 0v21h21V0H0zm.644.645h19.7v19.7H.644V.645zm7.67.357v.182h.322v-.182h-.322zm3.93 0v.182h.322v-.182h-.322zm3.93 0v.182h.322v-.182h-.322zm-11.8.262v.452h.322v-.452h-.322zm3.93.37v.453h.322v-.452h-.322zm3.93 0v.453h.322v-.452h-.322zm3.93 0v.453h.322v-.452h-.322zm-11.8.533v.452h.322v-.453h-.322zm3.93.37v.453h.322v-.452h-.322zm3.93 0v.453h.322v-.452h-.322zm3.93 0v.453h.322v-.452h-.322zm-11.8.533v.452h.322V3.07h-.322zm3.93.37v.453h.322V3.44h-.322zm3.93 0v.453h.322V3.44h-.322zm3.93 0v.453h.322V3.44h-.322zm-11.8.533v.18h.322v-.18h-.322zm-3.3.42v.323h.185v-.323h-.186zm.636 0v.323h.45v-.323h-.45zm.902 0v.323h.45v-.323h-.45zm.902 0v.323h.45v-.323h-.45zm.976 0v.034h-.034v.254h.034v.035h.254V4.68h.034v-.253h-.034v-.034H4.46zm.517 0v.323h.185v-.323h-.185zm.636 0v.323h.45v-.323h-.45zm.902 0v.323h.45v-.323h-.45zm.902 0v.323h.45v-.323h-.45zm.978 0v.034H8.36v.254h.035v.035h.252V4.68h.034v-.253h-.033v-.034h-.252zm.515 0v.323h.185v-.323H8.91zm.636 0v.323h.45v-.323h-.45zm.902 0v.323h.45v-.323h-.45zm.902 0v.323h.45v-.323h-.45zm.976 0v.034h-.034v.254h.034v.035h.254V4.68h.034v-.253h-.034v-.034h-.254zm.517 0v.323h.185v-.323h-.185zm.636 0v.323h.45v-.323h-.45zm.9 0v.323h.452v-.323h-.45zm.903 0v.323h.45v-.323h-.45zm.976 0v.034h-.033v.254h.032v.035h.253V4.68h.036v-.253h-.037v-.034h-.254zm.514.127v.323h.187V4.52h-.186zm.638 0v.323h.45V4.52h-.45zm.902 0v.323h.45V4.52h-.45zm.902 0v.323h.45V4.52h-.45zm-10.9.424v.18h.322v-.18h-.322zm3.93 0v.18h.322v-.18h-.322zm3.93 0v.18h.322v-.18h-.322zm-11.8.264v.452h.322v-.452h-.322zm3.93.37v.45h.322v-.45h-.322zm3.93 0v.45h.322v-.45h-.322zm3.93 0v.45h.322v-.45h-.322zm-11.8.533v.453h.322V6.11h-.322zm3.93.37v.452h.322V6.48h-.322zm3.93 0v.452h.322V6.48h-.322zm3.93 0v.452h.322V6.48h-.322zm-11.6.54v.452h.322V7.02h-.322zm3.93.37v.45h.322v-.45h-.322zm3.93 0v.45h.322v-.45h-.322zm3.93 0v.45h.322v-.45h-.322zm-11.8.533v.182h.322v-.182h-.322zm-3.12.41v.322h.45v-.323h-.45zm.902 0v.322h.45v-.323h-.45zm.902 0v.322h.45v-.323h-.45zm.902 0v.322h.185v-.323h-.185zm.45 0v.033h-.037v.252h.036v.036h.253v-.036h.034v-.252h-.034v-.034H4.58zm.778 0v.322h.45v-.323h-.45zm.902 0v.322h.45v-.323h-.45zm.902 0v.322h.45v-.323h-.45zm.902 0v.322h.185v-.323h-.184zm.45 0v.03h-.037v.255h.035v.036h.252v-.036H8.8v-.255h-.033v-.03h-.252zm.776 0v.322h.45v-.323h-.45zm.902 0v.322h.45v-.323h-.45zm.902 0v.322h.45v-.323h-.45zm.902 0v.322h.187v-.323h-.187zm.45 0v.03h-.035v.255h.034v.036h.254v-.036h.035v-.255H12.7v-.03h-.253zm.778 0v.322h.45v-.323h-.45zm.902 0v.322h.45v-.323h-.45zm.902 0v.322h.45v-.323h-.45zm.902 0v.322h.187v-.323h-.188zm.45 0v.03h-.033v.255h.033v.036h.127v-.036h.16v-.255h-.16v-.03h-.127zm.778 0v.322h.45v-.323h-.45zm.902 0v.322h.45v-.323h-.45zm.902 0v.322h.45v-.323h-.45zm.902 0v.322h.187v-.323h-.187zm-11.4.547v.184h.322V8.88h-.322zm3.93 0v.184h.322V8.88h-.322zm3.93 0v.184h.322V8.88h-.322zm-11.6.27v.452h.322V9.15h-.322zm3.93.37v.453h.322V9.52h-.322zm3.93 0v.453h.322V9.52h-.322zm3.93 0v.453h.322V9.52h-.322zm-11.8.533v.452h.322v-.452h-.322zm3.93.37v.453h.322v-.452h-.322zm3.93 0v.453h.322v-.452h-.322zm3.93 0v.453h.322v-.452h-.322zm-11.8.533v.452h.322v-.452h-.322zm3.93.37v.453h.322v-.453h-.322zm3.93 0v.453h.322v-.453h-.322zm3.93 0v.453h.322v-.453h-.322zm-11.8.533v.18h.322v-.18h-.322zm-3.12.408v.323h.45v-.322h-.45zm.902 0v.323h.45v-.322h-.45zm.902 0v.323h.45v-.322h-.45zm.902 0v.323h.185v-.322h-.185zm.45 0v.034h-.037v.253h.036v.034h.253v-.034h.034V12.3h-.034v-.034H4.73zm.778 0v.323h.45v-.322h-.45zm.902 0v.323h.45v-.322h-.45zm.902 0v.323h.45v-.322h-.45zm.902 0v.323H8.4v-.322h-.184zm.45 0v.034h-.037v.253h.035v.034h.252v-.034h.034V12.3h-.033v-.034h-.252zm.776 0v.323h.45v-.322h-.45zm.902 0v.323h.45v-.322h-.45zm.902 0v.323h.45v-.322h-.45zm.902 0v.323h.187v-.322h-.187zm.45 0v.034h-.035v.253h.034v.034h.254v-.034h.035V12.3h-.034v-.034h-.253zm.778 0v.323h.45v-.322h-.45zm.902 0v.323h.45v-.322h-.45zm.902 0v.323h.45v-.322h-.45zm.902 0v.323h.187v-.322h-.188zm.45 0v.034H16.5v.253h.033v.034h.127v-.034h.16V12.3h-.16v-.034h-.127zm.778 0v.323h.45v-.322h-.45zm.902 0v.323h.45v-.322h-.45zm.902 0v.323h.45v-.322h-.45zm.902 0v.323h.187v-.322h-.187zm-11.4.55V13h.322v-.182h-.322zm3.93 0V13h.322v-.182h-.322zm3.93 0V13h.322v-.182h-.322zm-11.8.264v.452h.322v-.452h-.322zm3.93.37v.45h.322v-.45h-.322zm3.93 0v.45h.322v-.45h-.322zm3.93 0v.45h.322v-.45h-.322zm-11.8.533v.452h.322v-.452h-.322zm3.93.37v.45h.322v-.45h-.322zm3.93 0v.45h.322v-.45h-.322zm3.93 0v.45h.322v-.45h-.322zm-11.8.533v.452h.322v-.452h-.322zm3.93.37v.45h.322v-.45h-.322zm3.93 0v.45h.322v-.45h-.322zm3.93 0v.45h.322v-.45h-.322zm-11.8.533v.18h.322v-.18h-.322zm-3.38.408v.323h.185V16.2h-.184zm.636 0v.323h.45V16.2h-.45zm.902 0v.323h.45V16.2h-.45zm.902 0v.323h.45V16.2h-.45zm.976 0v.036h-.034v.255h.034v.032h.253v-.032h.034v-.254h-.034v-.036H4.68zm.517 0v.323h.184V16.2H5.2zm.635 0v.323h.45V16.2h-.45zm.902 0v.323h.45V16.2h-.45zm.902 0v.323h.45V16.2h-.45zm.977 0v.036H8.58v.251h.037v.034h.252v-.034h.033v-.253H8.87v-.036h-.253zm.515 0v.323h.185V16.2h-.185zm.636 0v.323h.45V16.2h-.45zm.902 0v.323h.45V16.2h-.45zm.902 0v.323h.45V16.2h-.45zm.976 0v.036h-.034v.251h.034v.034h.254v-.034h.034v-.253h-.034v-.036h-.254zm.517 0v.323h.185V16.2h-.185zm.636 0v.323h.452V16.2h-.45zm.903 0v.323h.45V16.2h-.45zm.902 0v.323h.45V16.2h-.45zm.976 0v.036h-.03v.251h.03v.034h.255v-.034h.036v-.253h-.035v-.036h-.254zm.516 0v.323h.187V16.2h-.187zm.638 0v.323h.45V16.2h-.45zm.902 0v.323h.45V16.2h-.45zm.902 0v.323h.45V16.2h-.45zm-10.9.552v.18h.322v-.18h-.322zm3.93 0v.18h.322v-.18h-.322zm3.93 0v.18h.322v-.18h-.322zm-11.8.262v.452h.322v-.452h-.322zm3.93.37v.45h.322v-.45h-.322zm3.93 0v.45h.322v-.45h-.322zm3.93 0v.45h.322v-.45h-.322zm-11.8.533v.452h.322v-.452h-.322zm3.93.37v.45h.322v-.45h-.322zm3.93 0v.45h.322v-.45h-.322zm3.93 0v.45h.322v-.45h-.322zm-11.8.533v.452H4.9v-.452h-.322zm3.93.37v.45h.322v-.45h-.322zm3.93 0v.45h.322v-.45h-.322zm3.93 0v.45h.322v-.45h-.322zm-11.8.533v.183h.322v-.182h-.322z" fill="#edeeee" color="#000"/></svg>