<svg xmlns="http://www.w3.org/2000/svg" viewBox="0 0 41 41"><path style="text-decoration-color:#000000;isolation:auto;mix-blend-mode:normal;solid-color:#000000;block-progression:tb;text-decoration-line:none;text-decoration-style:solid;white-space:normal;text-indent:0;text-transform:none" d="M0 0v40.5h.48v.48h40.5V.48h-.48V0L0-.02zm.958.96h39.1v39.1H.958V.96zm15.2.66v.64h.32v-.64h-.32zm8.01 0v.64h.32v-.64h-.32zm8.01 0v.64h.32v-.64h-.32zm-24 .084v.64h.32v-.64h-.32zm8.01 1.51v.64h.32v-.64h-.32zm8.01 0v.64h.32v-.64h-.32zm8.01 0v.64h.32v-.64h-.32zm-24 .084v.64h.32v-.64h-.32zm8.01 1.51v.64h.32v-.64h-.32zm8.01 0v.64h.32v-.64h-.32zm8.01 0v.64h.32v-.64h-.32zm-24 .084v.64h.32v-.64h-.32zm8.01 1.52v.64h.32v-.64h-.32zm8.01 0v.64h.32v-.64h-.32zm8.01 0v.64h.32v-.64h-.32zm-24 .084v.64h.32v-.64h-.32zm0 1.62v.096H8.17v.32h.098v.1h.32v-.1h.097v-.32h-.098v-.096h-.32zm8.01 0v.096h-.098v.32h.098v.1h.32v-.1h.097v-.32h-.098v-.096h-.32zm8.01 0v.096h-.098v.32h.098v.1h.32v-.1h.097v-.32h-.098v-.096h-.32zm8.01 0v.096H32.2v.32h.098v.1h.32v-.1h.095v-.32h-.096v-.096h-.32zm-30.6.096v.32h.64v-.32h-.64zm1.6 0v.32h.64v-.32h-.64zm1.6 0v.32h.64v-.32h-.64zm1.6 0v.32h.64v-.32h-.64zm3.22 0v.32h.64v-.32h-.64zm1.6 0v.32h.64v-.32h-.64zm1.6 0v.32h.64v-.32h-.64zm1.6 0v.32h.64v-.32h-.64zm3.22 0v.32h.64v-.32h-.64zm1.6 0v.32h.64v-.32h-.64zm1.6 0v.32h.64v-.32h-.64zm1.6 0v.32h.64v-.32h-.64zm3.22 0v.32h.64v-.32h-.64zm1.6 0v.32h.64v-.32h-.64zm1.6 0v.32h.64v-.32h-.64zm1.6 0v.32h.64v-.32h-.64zm3.22 0v.32h.64v-.32h-.64zm1.6 0v.32h.64v-.32h-.64zm1.6 0v.32h.64v-.32h-.64zm1.6 0v.32h.64v-.32h-.64zm-22.2 1.41v.64h.32v-.64h-.32zm8.01 0v.64h.32v-.64h-.32zm8.01 0v.64h.32v-.64h-.32zm-24 .084v.64h.32v-.64h-.32zm8.01 1.52v.64h.32v-.64h-.32zm8.01 0v.64h.32v-.64h-.32zm8.01 0v.64h.32v-.64h-.32zm-24 .084v.64h.32v-.64h-.32zm8.01 1.51v.64h.32v-.64h-.32zm8.01 0v.64h.32v-.64h-.32zm8.01 0v.64h.32v-.64h-.32zm-24 .084v.64h.32v-.64h-.32zm8.01 1.52v.64h.32v-.64h-.32zm8.01 0v.64h.32v-.64h-.32zm8.01 0v.64h.32v-.64h-.32zm-24 .084v.64h.32v-.64h-.32zm0 1.62v.098H8.39v.32h.098v.098h.32v-.098h.097v-.32h-.098v-.098h-.32zm8.01 0v.098H16.4v.32h.098v.098h.32v-.098h.097v-.32h-.098v-.098h-.32zm8.01 0v.098h-.098v.32h.098v.098h.32v-.098h.095v-.32h-.096v-.098h-.32zm8.01 0v.098h-.098v.32h.098v.098h.32v-.098h.095v-.32h-.096v-.098h-.32zm-30.5.098v.32h.64v-.32h-.64zm1.6 0v.32h.64v-.32h-.64zm1.6 0v.32h.64v-.32h-.64zm1.6 0v.32h.64v-.32h-.64zm3.22 0v.32h.64v-.32h-.64zm1.6 0v.32h.64v-.32h-.64zm1.6 0v.32h.64v-.32h-.64zm1.6 0v.32h.64v-.32h-.64zm3.22 0v.32h.64v-.32h-.64zm1.6 0v.32h.64v-.32h-.64zm1.6 0v.32h.64v-.32h-.64zm1.6 0v.32h.64v-.32h-.64zm3.22 0v.32h.64v-.32h-.64zm1.6 0v.32h.64v-.32h-.64zm1.6 0v.32h.64v-.32h-.64zm1.6 0v.32h.64v-.32h-.64zm3.22 0v.32h.64v-.32h-.64zm1.6 0v.32h.64v-.32h-.64zm1.6 0v.32h.64v-.32h-.64zm1.6 0v.32h.64v-.32h-.64zm-22.3 1.4v.64h.32v-.64h-.32zm8.01 0v.64h.32v-.64h-.32zm8.01 0v.64h.32v-.64h-.32zm-24 .086v.64h.32v-.64h-.32zm8.01 1.51v.64h.32v-.64h-.32zm8.01 0v.64h.32v-.64h-.32zm8.01 0v.64h.32v-.64h-.32zm-24 .086v.64h.32v-.64h-.32zm8.01 1.51v.64h.32v-.64h-.32zm8.01 0v.64h.32v-.64h-.32zm8.01 0v.64h.32v-.64h-.32zm-24 .086v.64h.32v-.64h-.32zm8.01 1.51v.64h.32v-.64h-.32zm8.01 0v.64h.32v-.64h-.32zm8.01 0v.64h.32v-.64h-.32zm-24 .086v.64h.32v-.64h-.32zm0 1.62v.098H8.61v.32h.098v.098h.32v-.098h.097v-.32h-.098v-.098h-.32zm8.01 0v.098h-.098v.32h.098v.098h.32v-.098h.097v-.32h-.098v-.098h-.32zm8.01 0v.098h-.098v.32h.098v.098h.32v-.098h.095v-.32h-.096v-.098h-.32zm8.01 0v.098h-.098v.32h.098v.098h.32v-.098h.095v-.32h-.096v-.098h-.32zm-30.5.098v.32h.64v-.32h-.64zm1.6 0v.32h.64v-.32h-.64zm1.6 0v.32h.64v-.32h-.64zm1.6 0v.32h.64v-.32h-.64zm3.22 0v.32h.64v-.32h-.64zm1.6 0v.32h.64v-.32h-.64zm1.6 0v.32h.64v-.32h-.64zm1.6 0v.32h.64v-.32h-.64zm3.22 0v.32h.64v-.32h-.64zm1.6 0v.32h.64v-.32h-.64zm1.6 0v.32h.64v-.32h-.64zm1.6 0v.32h.64v-.32h-.64zm3.22 0v.32h.64v-.32h-.64zm1.6 0v.32h.64v-.32h-.64zm1.6 0v.32h.64v-.32h-.64zm1.6 0v.32h.64v-.32h-.64zm3.22 0v.32h.64v-.32h-.64zm1.6 0v.32h.64v-.32h-.64zm1.6 0v.32h.64v-.32h-.64zm1.6 0v.32h.64v-.32h-.64zm-22.3 1.4v.64h.32v-.64h-.32zm8.01 0v.64h.32v-.64h-.32zm8.01 0v.64h.32v-.64h-.32zm-24 .084v.64h.32v-.64h-.32zm8.01 1.52v.64h.32v-.64h-.32zm8.01 0v.64h.32v-.64h-.32zm8.01 0v.64h.32v-.64h-.32zm-24 .084v.64h.32v-.64h-.32zm8.01 1.51v.64h.32v-.64h-.32zm8.01 0v.64h.32v-.64h-.32zm8.01 0v.64h.32v-.64h-.32zm-24 .084v.64h.32v-.64h-.32zm8.01 1.52v.64h.32v-.64h-.32zm8.01 0v.64h.32v-.64h-.32zm8.01 0v.64h.32v-.64h-.32zm-24 .084v.64h.32v-.64h-.32zm0 1.62v.098H8.83v.32h.098v.098h.32v-.098h.097v-.32h-.098v-.098h-.32zm8.01 0v.098h-.098v.32h.098v.098h.32v-.098h.097v-.32h-.098v-.098h-.32zm8.01 0v.098h-.098v.32h.098v.098h.32v-.098h.097v-.32h-.098v-.098h-.32zm8.01 0v.098h-.098v.32h.098v.098h.32v-.098h.095v-.32h-.096v-.098h-.32zm-30.6.098v.32h.64v-.32h-.64zm1.6 0v.32h.64v-.32h-.64zm1.6 0v.32h.64v-.32h-.64zm1.6 0v.32h.64v-.32h-.64zm3.22 0v.32h.64v-.32h-.64zm1.6 0v.32h.64v-.32h-.64zm1.6 0v.32h.64v-.32h-.64zm1.6 0v.32h.64v-.32h-.64zm3.22 0v.32h.64v-.32h-.64zm1.6 0v.32h.64v-.32h-.64zm1.6 0v.32h.64v-.32h-.64zm1.6 0v.32h.64v-.32h-.64zm3.22 0v.32h.64v-.32h-.64zm1.6 0v.32h.64v-.32h-.64zm1.6 0v.32h.64v-.32h-.64zm1.6 0v.32h.64v-.32h-.64zm3.22 0v.32h.64v-.32h-.64zm1.6 0v.32h.64v-.32h-.64zm1.6 0v.32h.64v-.32h-.64zm1.6 0v.32h.64v-.32h-.64zm-22.2 1.4v.64h.32v-.64h-.32zm8.01 0v.64h.32v-.64h-.32zm8.01 0v.64h.32v-.64h-.32zm-24 .086v.64h.32v-.64h-.32zm8.01 1.51v.64h.32v-.64h-.32zm8.01 0v.64h.32v-.64h-.32zm8.01 0v.64h.32v-.64h-.32zm-24 .086v.64h.32v-.64h-.32zm8.01 1.51v.64h.32v-.64h-.32zm8.01 0v.64h.32v-.64h-.32zm8.01 0v.64h.32v-.64h-.32zm-24 .086v.64h.32v-.64h-.32zm8.01 1.51v.64h.32v-.64h-.32zm8.01 0v.64h.32v-.64h-.32zm8.01 0v.64h.32v-.64h-.32zm-24 .086v.64h.32v-.64h-.32z" fill="#fff" color="#000"/></svg>