<svg xmlns="http://www.w3.org/2000/svg" viewBox="0 0 16 16"><path style="text-decoration-color:#000000;isolation:auto;mix-blend-mode:normal;solid-color:#000000;block-progression:tb;text-decoration-line:none;text-decoration-style:solid;white-space:normal;text-indent:0;text-transform:none" d="M0 0v16h16V0H0zm.617.62h14.8v14.8H.617V.62zm5.65.052v.31h.31V.67h-.31zm3.08 0v.31h.31V.67h-.31zm3.08 0v.31h.31V.67h-.31zM3.197.78v.31h.31V.78h-.31zm3.08.51v.31h.31v-.31h-.31zm3.08 0v.31h.31v-.31h-.31zm3.08 0v.31h.31v-.31h-.31zm-9.23.108v.31h.31v-.31h-.31zm3.08.512v.31h.31v-.31h-.31zm3.08 0v.31h.31v-.31h-.31zm3.08 0v.31h.31v-.31h-.31zm-9.23.105v.31h.31v-.31h-.31zm3.08.512v.31h.31v-.31h-.31zm3.08 0v.31h.31v-.31h-.31zm3.08 0v.31h.31v-.31h-.31zm-9.23.107v.31h.31v-.31h-.31zm-2.52.557v.31h.31v-.31h-.31zm.617 0v.31h.31v-.31h-.31zm.62 0v.31h.308v-.31h-.31zm.616 0v.31h.31v-.31h-.31zm.72 0v.056h-.056v.2h.057V3.5h.198v-.054h.057v-.2h-.057V3.19H3.28zm.503 0v.31h.31v-.31h-.31zm.617 0v.31h.31v-.31H4.4zm.62 0v.31h.308v-.31h-.31zm.616 0v.31h.31v-.31h-.31zm.72 0v.058H6.3v.198h.057V3.5h.198v-.054h.056v-.198h-.056V3.19h-.197zm.503 0v.31h.308v-.31h-.31zm.616 0v.31h.31v-.31h-.31zm.62 0v.31h.308v-.31h-.31zm.616 0v.31h.31v-.31h-.31zm.72 0v.058h-.056v.198h.057V3.5h.098v-.054h.003V3.5h.097v-.054h.057v-.198H9.63V3.19h-.097v.058H9.53V3.19h-.097zm.503 0v.31h.31v-.31h-.31zm.617 0v.31h.31v-.31h-.31zm.62 0v.31h.308v-.31h-.31zm.616 0v.31h.31v-.31h-.31zm.723 0v.058h-.058v.198h.06V3.5h.095v-.054h.002V3.5h.096v-.054h.057v-.198h-.057V3.19h-.097v.058h-.003V3.19h-.096zm.5 0v.31h.31v-.31h-.31zm.618 0v.31h.31v-.31h-.31zm.62 0v.31h.308v-.31h-.31zm.616 0v.31h.31v-.31h-.31zm-8.56.56v.31h.31v-.31h-.31zm3.08 0v.31h.31v-.31h-.31zm3.08 0v.31h.31v-.31h-.31zm-9.23.107v.31h.31v-.31h-.31zm3.08.51v.31h.31v-.31h-.31zm3.08 0v.31h.31v-.31h-.31zm3.08 0v.31h.31v-.31h-.31zm-9.23.107v.31h.31v-.31h-.31zm3.08.512v.31h.31v-.31h-.31zm3.08 0v.31h.31v-.31h-.31zm3.08 0v.31h.31v-.31h-.31zm-9.23.108v.31h.31v-.31h-.31zm3.08.51v.31h.31v-.31h-.31zm3.08 0v.31h.31v-.31h-.31zm3.08 0v.31h.31v-.31h-.31zm-9.23.108v.31h.31v-.31h-.31zm-2.41.557v.308h.31v-.31h-.31zm.617 0v.308h.31v-.31h-.31zm.618 0v.308h.31v-.31h-.31zm.62 0v.308h.308v-.31h-.31zm.612 0v.056h-.057v.198h.057v.055h.198v-.056h.056v-.198h-.057V6.27H3.32zm.61 0v.308h.308v-.31h-.31zm.616 0v.308h.31v-.31h-.31zm.617 0v.308h.31v-.31h-.31zm.62 0v.308h.308v-.31h-.308zm.612 0v.056h-.057v.198h.057v.055h.198v-.056h.056v-.198H6.59V6.27h-.197zm.61 0v.308h.308v-.31h-.31zm.616 0v.308h.31v-.31h-.31zm.618 0v.308h.31v-.31h-.31zm.62 0v.308h.308v-.31h-.31zm.612 0v.056h-.057v.198h.057v.055h.198v-.056h.056v-.198h-.057V6.27H9.47zm.61 0v.308h.308v-.31h-.31zm.616 0v.308h.31v-.31h-.31zm.617 0v.308h.31v-.31h-.31zm.62 0v.308h.308v-.31h-.308zm.612 0v.056h-.057v.198h.057v.055h.198v-.056h.056v-.198h-.058V6.27h-.197zm.61 0v.308h.308v-.31h-.31zm.616 0v.308h.31v-.31h-.31zm.618 0v.308h.31v-.31h-.31zm.62 0v.308h.308v-.31h-.31zm-8.67.558v.31h.31v-.31h-.31zm3.08 0v.31h.31v-.31h-.31zm3.08 0v.31h.31v-.31h-.31zm-9.01.08v.31h.31v-.31h-.31zm3.08.512v.31h.31v-.31h-.31zm3.08 0v.31h.31v-.31h-.31zm3.08 0v.31h.31v-.31h-.31zm-9.23.107v.31h.31v-.31h-.31zm3.08.51v.31h.31v-.31h-.31zm3.08 0v.31h.31v-.31h-.31zm3.08 0v.31h.31v-.31h-.31zm-9.23.107v.31h.31v-.31h-.31zm3.08.512v.31h.31v-.31h-.31zm3.08 0v.31h.31v-.31h-.31zm3.08 0v.31h.31v-.31h-.31zm-9.23.107v.31h.31v-.31h-.31zm-2.41.557v.31h.308v-.31h-.31zm.616 0v.31h.31v-.31h-.31zm.617 0v.31h.312v-.31h-.31zm.62 0v.31h.31v-.31h-.31zm.613 0v.057h-.057v.198h.057v.055h.198v-.055h.057v-.198H3.77V9.32h-.197zm.61 0v.31h.308v-.31h-.308zm.616 0v.31h.308v-.31h-.31zm.616 0v.31h.31v-.31h-.31zm.62 0v.31h.308v-.31h-.31zm.612 0v.057H6.59v.198h.058v.055h.198v-.055H6.9v-.198h-.057V9.32h-.197zm.61 0v.31h.308v-.31h-.31zm.616 0v.31h.31v-.31h-.31zm.617 0v.31h.312v-.31h-.31zm.62 0v.31h.31v-.31h-.31zm.613 0v.057h-.057v.198h.057v.055h.198v-.055h.057v-.198H9.92V9.32h-.197zm.61 0v.31h.308v-.31h-.308zm.616 0v.31h.308v-.31h-.31zm.616 0v.31h.31v-.31h-.31zm.62 0v.31h.308v-.31h-.31zm.612 0v.057h-.057v.198h.058v.055h.198v-.055h.056v-.198h-.057V9.32h-.197zm.61 0v.31h.308v-.31h-.31zm.616 0v.31h.31v-.31h-.31zm.617 0v.31h.312v-.31h-.31zm.62 0v.31h.31v-.31h-.31zm-8.67.56v.308h.31v-.31h-.31zm3.08 0v.308h.31v-.31h-.31zm3.08 0v.308h.31v-.31h-.31zm-9.23.106v.31h.31v-.31h-.31zm3.08.51v.308h.31v-.308H6.6zm3.08 0v.308h.31v-.308h-.31zm3.08 0v.308h.31v-.308h-.31zm-9.23.107v.31h.31v-.31h-.31zm3.08.512v.31h.31v-.31h-.31zm3.08 0v.31H10v-.31h-.31zm3.08 0v.31h.31v-.31h-.31zm-9.23.106v.31h.31v-.31h-.31zm3.08.513v.31h.31v-.31h-.31zm3.08 0v.31h.31v-.31H9.7zm3.08 0v.31h.31v-.31h-.31zm-9.23.107v.31h.31v-.31h-.31zm-2.52.557v.31h.31v-.31h-.31zm.617 0v.31h.31v-.31h-.31zm.62 0v.31h.308v-.31h-.31zm.616 0v.31h.31v-.31h-.31zm.72 0v.055h-.056v.2h.057v.055h.198v-.055h.056v-.2H3.8v-.055h-.196zm.503 0v.31h.31v-.31h-.31zm.617 0v.31h.31v-.31h-.31zm.62 0v.31h.308v-.31h-.308zm.616 0v.31h.308v-.31h-.31zm.72 0v.055h-.057v.2h.057v.055h.198v-.055h.056v-.2h-.057v-.055H6.68zm.502 0v.31h.31v-.31h-.31zm.617 0v.31h.31v-.31H7.8zm.618 0v.31h.31v-.31h-.31zm.617 0v.31h.31v-.31h-.31zm.72 0v.055H9.7v.2h.056v.055h.098v-.055h.002v.055h.097v-.055h.057v-.2h-.057v-.055h-.097v.055h-.002v-.055h-.098zm.503 0v.31h.31v-.31h-.31zm.617 0v.31h.31v-.31h-.31zm.62 0v.31h.308v-.31h-.31zm.616 0v.31h.31v-.31h-.31zm.724 0v.055h-.06v.2h.06v.055h.096v-.055h.002v.055h.097v-.055h.056v-.2h-.057v-.055h-.098v.055h-.002v-.055h-.096zm.5 0v.31h.31v-.31h-.31zm.617 0v.31h.312v-.31h-.31zm.62 0v.31h.31v-.31h-.31zm.617 0v.31h.31v-.31h-.31zm-8.56.56v.308h.31v-.31h-.31zm3.08 0v.308h.31v-.31h-.31zm3.08 0v.308h.31v-.31h-.31zm-9.23.107v.31h.31v-.31h-.31zm3.08.51v.31h.31v-.31h-.31zm3.08 0v.31h.31v-.31h-.31zm3.08 0v.31h.31v-.31h-.31zm-9.23.107v.31h.31v-.31h-.31zm3.08.513v.31h.31v-.31h-.31zm3.08 0v.31h.31v-.31h-.31zm3.08 0v.31h.31v-.31h-.31zm-9.23.105v.31h.31v-.31h-.31zm3.08.512v.308h.31v-.308h-.31zm3.08 0v.308h.31v-.308h-.31zm3.08 0v.308h.31v-.308h-.31zm-9.23.107v.31h.31v-.31h-.31z" fill="#edeeee" color="#000"/></svg>